<?xml version="1.0" encoding="utf-8"?>
<!-- Generator: Adobe Illustrator 22.0.1, SVG Export Plug-In . SVG Version: 6.00 Build 0)  -->
<svg version="1.1" id="Capa_1" xmlns="http://www.w3.org/2000/svg" xmlns:xlink="http://www.w3.org/1999/xlink" x="0px" y="0px"
	 viewBox="0 0 161 215.2" style="enable-background:new 0 0 161 215.2;" xml:space="preserve">
<style type="text/css">
	.st0{fill:none;}
	.st1{fill:#FFFFFF;}
</style>
<g>
	<path class="st0" d="M154.2,215.2H6.8c-3.7,0-6.8-3-6.8-6.8V6.8C0,3,3,0,6.8,0h147.5c3.7,0,6.8,3,6.8,6.8v201.6
		C161,212.1,158,215.2,154.2,215.2z"/>
	<g>
		<path class="st1" d="M38.8,188.2c0.1-0.2,0.2-0.4,0.1-0.6L34,162.1c-0.1-0.3-0.3-0.5-0.6-0.6l-0.1,0h-4.1c-0.3,0-0.6,0.2-0.7,0.5
			l0,0.1l-4.9,25.6c0,0.2,0,0.4,0.1,0.6c0.1,0.2,0.3,0.3,0.5,0.3H27c0.3,0,0.6-0.2,0.7-0.6l0.9-4.6h5.3l0.9,4.6
			c0.1,0.3,0.4,0.6,0.7,0.6h2.8C38.4,188.4,38.6,188.4,38.8,188.2z M29.2,179.5l2-10.3l2,10.3H29.2z"/>
		<path class="st1" d="M108.6,143.1h3.2c0.4,0,0.7-0.3,0.7-0.7v-19c0.7,0,1.9,0,3.2,0c1.9,0,4.2,0,5.5-0.1c0.4,0,0.6,0.1,0.8,0.2
			c0.2,0.1,0.4,0.3,0.6,0.6l0,0c3.7,5.9,11.8,18.4,12,18.7c0.1,0.2,0.3,0.3,0.6,0.3h3.9c0.3,0,0.5-0.1,0.6-0.4
			c0.1-0.2,0.1-0.5,0-0.7c-0.9-1.4-10.4-16-12.6-19.6c0.1,0,0.2-0.1,0.2-0.1l0,0c13.4-4.3,18-20.9,8.7-31.4l-0.4-0.5
			c-3.8-4-8.5-6.2-14.1-6.2c-3.8,0.1-12.3,0-12.9,0c-0.4,0-0.7,0.3-0.7,0.7v57.3C107.9,142.8,108.2,143.1,108.6,143.1z M119.4,89.1
			L119.4,89.1c1.8,0,3.4,0,5.1,0.3c7.3,1.2,12.5,8.5,11.8,15.9c-0.7,6.8-5.9,11.6-10.6,12.8l-0.5,0.1c-0.8,0.2-1.3,0.4-1.9,0.4h0
			c-3.5,0-7,0-10.6,0c0-7.3,0-10.9,0-12.8c0-1,0-1.4,0-1.7c0-0.1,0-0.2,0-0.2v-0.1c0,0,0-0.1,0-0.2c0-0.2,0-0.7,0-1.7
			c0-1.9,0-5.6,0-12.8C114.9,89.1,117.1,89.1,119.4,89.1z"/>
		<path class="st1" d="M33.9,143.3c5.1,1.1,9.4,0.6,13.1-1.4c2.9-1.6,5.3-4.2,7.3-7.5v8c0,0.4,0.3,0.7,0.7,0.7h3.2
			c0.4,0,0.7-0.3,0.7-0.7V91c0.3,0.4,0.8,1,1.2,1.5c1.5,1.9,3.6,4.6,5.9,7.6c4.6,6,10.2,13.1,13.8,18c0.1,0.2,0.3,0.3,0.6,0.3
			c0.2,0,0.4-0.1,0.6-0.3c1.9-2.5,7.4-9.6,12.5-16.1c2.5-3.3,5-6.4,6.7-8.7c0.7-0.9,1.3-1.6,1.7-2.2v51.4c0,0.4,0.3,0.7,0.7,0.7h3.1
			c0.4,0,0.7-0.3,0.7-0.7V85.1c0-0.4-0.3-0.7-0.7-0.7c-0.6,0-1.4,0-2.2,0c-0.8,0-1.6,0-2.2,0c-0.2,0-0.4,0.1-0.5,0.2l-0.1,0.1
			c-5.5,6.8-8.2,10.2-9.6,11.9c-0.7,0.8-1,1.3-1.2,1.5c0,0.1-0.1,0.1-0.1,0.2c0,0-0.1,0.1-0.1,0.2c0,0,0,0.1,0,0.2
			c-0.1,0.2-0.4,0.6-0.9,1.3c-1.2,1.6-3.6,4.8-8.5,11.1c-4.9-6.3-7.4-9.5-8.6-11.1c-0.6-0.8-1-1.3-1.1-1.5c0,0,0,0,0,0
			c0-0.1,0-0.1,0-0.1c0-0.1-0.1-0.2-0.2-0.3c-0.2-0.2-0.5-0.7-1.1-1.5c-1.3-1.7-3.9-5.1-9.2-11.9c-0.1-0.2-0.3-0.3-0.6-0.3
			c-2.2,0-2.2,0-2.2,0c0,0-0.1,0-2.5,0c-0.4,0-0.7,0.3-0.7,0.7V118c-1-1.8-2.2-3.4-3.7-4.8c-3-2.9-6.5-4.9-10.4-6.3
			c-2.8-1-5.4-2.5-7.5-4.6l0,0l-0.2-0.2c-2-2.1-2.5-4.6-1.9-7.5v0c0.7-3.2,3.5-5.8,6.6-6.2h0c3.4-0.5,6.5,1,8.4,3.8l0.2,0.3
			c0.2,0.4,0.4,0.7,0.7,1.2c0.2,0.3,0.5,0.5,0.9,0.3c0.9-0.4,1.8-0.7,2.9-1.1c0.2-0.1,0.3-0.2,0.4-0.4c0.1-0.2,0.1-0.4,0-0.6
			c-0.4-0.8-0.7-1.6-1.2-2.3c-3.4-5.3-10.2-7.4-15.9-4.9C25.2,88.3,23,99,29.2,105.4c2.7,2.8,6,4.5,9.5,5.8c3.8,1.4,7.2,3.5,9.9,6.6
			c2.7,3.1,3.6,6.8,2.8,10.9l0,0c-1,5.6-5.5,9.8-11.2,10.6c-6.8,0.9-13.4-3.8-14.6-10.6h0c0-0.2-0.1-0.3-0.1-0.5
			c0-0.2-0.1-0.3-0.1-0.4c-0.1-0.2-0.2-0.3-0.4-0.4c-0.2-0.1-0.3-0.1-0.5-0.1l-0.1,0c-0.5,0.2-1,0.4-1.5,0.5
			c-0.5,0.2-0.9,0.3-1.4,0.5c-0.3,0.1-0.5,0.4-0.4,0.7c0.3,3.2,1.9,6.4,4.2,9C27.6,140.6,30.6,142.6,33.9,143.3z M33,85.7L33,85.7
			C32.9,85.7,32.9,85.8,33,85.7C32.9,85.8,32.9,85.7,33,85.7z"/>
		<path class="st1" d="M148.1,196.6c-0.8,0-1.6,0.1-2.3,0.3c-0.7,0.2-1.3,0.4-2,0.8c-0.3,0.2-0.5,0.6-0.3,0.9l0.4,1
			c0.1,0.2,0.2,0.3,0.4,0.4c0.2,0.1,0.4,0.1,0.6,0c0.5-0.2,1-0.4,1.5-0.6c0.5-0.1,1.1-0.2,1.7-0.2c1,0,1.8,0.3,2.3,0.7
			c0.4,0.3,0.7,0.9,0.7,1.6c-0.3-0.1-0.6-0.1-0.9-0.2c-0.6-0.1-1.3-0.1-2.2-0.1c-0.8,0-1.5,0.1-2.2,0.3c-0.7,0.2-1.3,0.5-1.8,0.8
			c-0.5,0.4-0.9,0.8-1.2,1.4c-0.3,0.6-0.5,1.2-0.5,1.9v0.1c0,0.7,0.2,1.3,0.5,1.9l0,0c0.3,0.5,0.7,1,1.2,1.3c0,0,0,0,0,0
			c0.5,0.3,1,0.6,1.6,0.7c0.6,0.2,1.2,0.2,1.8,0.2c0.6,0,1.1-0.1,1.6-0.2c0,0,0,0,0,0c0.5-0.1,0.9-0.3,1.4-0.6
			c0.2-0.1,0.4-0.2,0.6-0.4v0.2c0,0.4,0.3,0.7,0.7,0.7h1.1c0.4,0,0.7-0.3,0.7-0.7v-7c0-1.6-0.5-2.9-1.5-3.8
			C151,197,149.7,196.6,148.1,196.6z M151.1,204.5c0,0.4-0.1,0.8-0.2,1.1l0,0c-0.2,0.3-0.4,0.6-0.7,0.9c-0.3,0.2-0.7,0.4-1.1,0.6
			l-0.3,0.1c-0.3,0.1-0.7,0.1-1.1,0.1c-0.4,0-0.7,0-1-0.1c-0.3-0.1-0.6-0.2-0.8-0.4c-0.2-0.2-0.4-0.3-0.5-0.6
			c-0.1-0.2-0.2-0.4-0.2-0.7v0c0-0.6,0.2-1,0.7-1.3l0,0c0.5-0.4,1.2-0.6,2.3-0.6c0.8,0,1.5,0.1,2,0.2c0,0,0,0,0,0
			c0.4,0.1,0.7,0.1,1.1,0.2V204.5z"/>
		<path class="st1" d="M154.5,5.3H6.5C6.1,5.3,5.8,5.6,5.8,6v148.8c0,0.4,0.3,0.7,0.7,0.7h148c0.4,0,0.7-0.3,0.7-0.7V6
			C155.2,5.6,154.9,5.3,154.5,5.3z M151.8,152.1H9.2V8.7h142.6V152.1z"/>
		<path class="st1" d="M32.9,191.9h-1.1c-0.4,0-0.7,0.3-0.7,0.7v16.1c0,0.4,0.3,0.7,0.7,0.7h1.1c0.4,0,0.7-0.3,0.7-0.7v-16.1
			C33.6,192.2,33.3,191.9,32.9,191.9z"/>
		<path class="st1" d="M17.4,175.8c-0.6-0.6-1.5-1.4-2.5-2.3l0,0l-0.5-0.4c-1.1-0.9-1.8-1.6-2.4-2.3c-0.5-0.7-0.8-1.6-0.8-2.6
			c0-1.1,0.2-1.8,0.6-2.3c0.3-0.4,0.8-0.6,1.6-0.6s1.3,0.2,1.6,0.6c0.3,0.4,0.6,1.2,0.6,2.3v0.8c0,0.4,0.3,0.7,0.7,0.7H19
			c0.4,0,0.7-0.3,0.7-0.7v-0.7c0-2.1-0.5-3.9-1.6-5.1l0,0l-0.2-0.2c-1.1-1.2-2.7-1.7-4.5-1.7c-2,0-3.7,0.6-4.8,1.9
			c-1.1,1.3-1.6,3-1.6,5.2c0,1.3,0.2,2.4,0.6,3.4l0,0c0.5,1,1,1.8,1.7,2.5c0.6,0.6,1.5,1.4,2.5,2.2c0,0,0,0,0,0
			c1.3,1,2.2,1.9,2.8,2.7c0.5,0.7,0.8,1.5,0.8,2.6c0,1.1-0.2,1.8-0.6,2.3l0,0c-0.3,0.4-0.8,0.7-1.7,0.7c-0.7,0-1.2-0.2-1.5-0.5
			l-0.1-0.2c-0.4-0.5-0.6-1.2-0.6-2.3v-1.6c0-0.4-0.3-0.7-0.7-0.7H7.6c-0.4,0-0.7,0.3-0.7,0.7v1.5c0,2.1,0.5,3.9,1.6,5.1
			c1.1,1.3,2.8,1.9,4.8,1.9c2,0,3.7-0.6,4.8-1.9c1.1-1.3,1.6-3,1.6-5.1c0-1.3-0.2-2.4-0.7-3.4C18.6,177.2,18,176.4,17.4,175.8z"/>
		<path class="st1" d="M11.7,196.6c-0.8,0-1.6,0.1-2.3,0.3c-0.7,0.2-1.3,0.4-2,0.8c-0.3,0.2-0.5,0.6-0.3,0.9l0.4,1
			c0.1,0.2,0.2,0.3,0.4,0.4c0.2,0.1,0.4,0.1,0.6,0c0.5-0.2,1-0.4,1.5-0.6c0.5-0.1,1.1-0.2,1.7-0.2c1,0,1.8,0.3,2.3,0.7
			c0.4,0.3,0.7,0.9,0.7,1.6c-0.3-0.1-0.6-0.1-0.9-0.2c-0.6-0.1-1.3-0.1-2.1-0.1c-0.8,0-1.5,0.1-2.2,0.3c-0.6,0.2-1.1,0.4-1.6,0.7
			l-0.2,0.1c-0.5,0.4-0.9,0.8-1.2,1.4c-0.3,0.6-0.5,1.2-0.5,1.9v0.1c0,0.7,0.2,1.3,0.5,1.9l0,0c0.3,0.5,0.7,1,1.2,1.3c0,0,0,0,0,0
			c0.5,0.3,1,0.6,1.6,0.7c0.6,0.2,1.2,0.2,1.8,0.2c0.6,0,1.1-0.1,1.6-0.2c0,0,0,0,0,0c0.5-0.1,0.9-0.3,1.4-0.6
			c0.2-0.1,0.4-0.2,0.6-0.4v0.2c0,0.4,0.3,0.7,0.7,0.7h1.1c0.4,0,0.7-0.3,0.7-0.7v-7c0-1.6-0.5-2.9-1.5-3.8
			C14.6,197,13.3,196.6,11.7,196.6z M14.6,204.5c0,0.4-0.1,0.8-0.2,1.1l0,0c-0.2,0.3-0.4,0.6-0.7,0.9c-0.3,0.2-0.7,0.4-1.1,0.6
			l-0.3,0.1c-0.3,0.1-0.7,0.1-1.1,0.1c-0.4,0-0.7,0-1-0.1c-0.3-0.1-0.6-0.2-0.8-0.4c-0.2-0.2-0.4-0.3-0.5-0.6
			c-0.1-0.2-0.2-0.4-0.2-0.7v0c0-0.6,0.2-1,0.7-1.3l0,0c0.5-0.4,1.2-0.6,2.3-0.6c0.8,0,1.5,0.1,2,0.2c0,0,0,0,0,0
			c0.4,0.1,0.7,0.1,1.1,0.2V204.5z"/>
		<path class="st1" d="M120.6,191.3h-1.3c-0.4,0-0.7,0.3-0.7,0.7v1.5c0,0.4,0.3,0.7,0.7,0.7h1.3c0.4,0,0.7-0.3,0.7-0.7V192
			C121.3,191.6,121,191.3,120.6,191.3z"/>
		<path class="st1" d="M124.6,186.3c0-0.4-0.1-1-0.1-1.7v-4c0-1.5-0.3-2.8-0.9-3.8c-0.3-0.6-0.8-1.1-1.4-1.5c0.6-0.4,1-0.9,1.4-1.5
			l0,0c0.6-1,0.9-2.3,0.9-3.8V168c0-2-0.5-3.7-1.5-4.8l0,0l-0.2-0.2c-1.1-1-2.7-1.5-4.6-1.5h-5.7c-0.4,0-0.7,0.3-0.7,0.7v25.5
			c0,0.4,0.3,0.7,0.7,0.7h2.9c0.4,0,0.7-0.3,0.7-0.7v-10.2h1.3c1.1,0,1.9,0.3,2.3,0.7c0.4,0.4,0.7,1.1,0.7,2.4v4
			c0,0.8,0.1,1.5,0.1,2c0,0,0,0,0,0c0.1,0.5,0.2,0.9,0.4,1.4c0.1,0.3,0.4,0.4,0.6,0.4h2.9c0.2,0,0.5-0.1,0.6-0.3
			c0.1-0.2,0.1-0.5,0-0.7C124.7,187.1,124.6,186.7,124.6,186.3z M120.2,170.7c0,1.2-0.3,1.9-0.6,2.2c-0.4,0.4-1.1,0.6-2.2,0.6h-1.4
			v-8.1h2.1c0.9,0,1.4,0.3,1.7,0.6c0.3,0.4,0.5,1.1,0.5,2.2V170.7z"/>
		<path class="st1" d="M85.6,184.6c0,0.8,0.1,1.5,0.1,2c0,0,0,0,0,0c0.1,0.5,0.2,0.9,0.4,1.4c0.1,0.3,0.4,0.4,0.6,0.4h2.9
			c0.2,0,0.5-0.1,0.6-0.3c0.1-0.2,0.1-0.5,0-0.7c-0.2-0.3-0.3-0.6-0.3-1c0-0.4-0.1-1-0.1-1.7v-4c0-1.5-0.3-2.8-0.9-3.8
			c-0.3-0.6-0.8-1.1-1.4-1.5c0.6-0.4,1-0.9,1.4-1.5c0.6-1,0.9-2.3,0.9-3.8V168c0-2-0.5-3.7-1.5-4.8l0,0l-0.2-0.2
			c-1.1-1-2.7-1.5-4.6-1.5h-5.7c-0.4,0-0.7,0.3-0.7,0.7v25.5c0,0.4,0.3,0.7,0.7,0.7h2.8c0.4,0,0.7-0.3,0.7-0.7v-10.2h1.3
			c1.1,0,1.9,0.3,2.3,0.7c0.4,0.4,0.7,1.1,0.7,2.4V184.6z M85,173c-0.4,0.4-1.1,0.6-2.3,0.6h-1.4v-8.1h2.1c0.9,0,1.4,0.3,1.7,0.6
			c0.3,0.4,0.5,1.1,0.5,2.2v2.4C85.7,172,85.4,172.6,85,173z"/>
		<path class="st1" d="M120.4,196.8h-1.1c-0.4,0-0.7,0.3-0.7,0.7v11.3c0,0.4,0.3,0.7,0.7,0.7h1.1c0.4,0,0.7-0.3,0.7-0.7v-11.3
			C121.1,197.1,120.8,196.8,120.4,196.8z"/>
		<path class="st1" d="M97,200.5l-0.1-0.3c-0.3-0.7-0.6-1.3-1.1-1.8l0,0c-0.5-0.6-1.1-1.1-1.8-1.4c-0.7-0.4-1.6-0.5-2.4-0.5
			c-0.9,0-1.7,0.2-2.4,0.5l0,0c-0.7,0.3-1.3,0.8-1.9,1.4c-0.5,0.6-1,1.3-1.3,2.1l0,0c-0.3,0.8-0.4,1.6-0.4,2.5v0.1
			c0,0.9,0.1,1.8,0.5,2.7c0.3,0.8,0.8,1.5,1.3,2.1c0.6,0.6,1.2,1,2,1.4c0.8,0.3,1.6,0.5,2.4,0.5c1.2,0,2.2-0.2,3-0.7
			c0.8-0.4,1.5-1,2.1-1.7c0.1-0.1,0.2-0.3,0.2-0.5c0-0.2-0.1-0.4-0.2-0.5l-0.8-0.7c-0.3-0.2-0.7-0.2-1,0.1c-0.4,0.4-0.9,0.8-1.5,1.1
			c-0.5,0.3-1.1,0.4-1.9,0.4c-0.5,0-0.9-0.1-1.3-0.3c-0.4-0.2-0.8-0.4-1.1-0.7c-0.3-0.3-0.6-0.7-0.8-1.2c-0.1-0.3-0.2-0.5-0.3-0.9
			h8.5c0.3,0,0.6-0.2,0.7-0.6c0-0.2,0-0.3,0-0.3v-0.3C97.4,202.2,97.3,201.3,97,200.5L97,200.5z M88.2,201.9
			c0.1-0.3,0.1-0.5,0.2-0.8c0.2-0.5,0.5-0.9,0.8-1.2c0,0,0,0,0,0c0.3-0.3,0.6-0.6,1-0.8c0.4-0.2,0.8-0.3,1.3-0.3
			c0.5,0,1,0.1,1.4,0.3c0.4,0.2,0.7,0.5,1,0.8c0.3,0.3,0.5,0.7,0.7,1.2c0.1,0.2,0.1,0.5,0.2,0.7H88.2z"/>
		<path class="st1" d="M112.7,191.9h-1.1c-0.4,0-0.7,0.3-0.7,0.7v5.4c-0.2-0.2-0.5-0.4-0.7-0.6l0,0l-0.3-0.2
			c-0.3-0.2-0.7-0.3-1.1-0.5c-0.6-0.2-1.1-0.3-1.8-0.3c-0.8,0-1.5,0.2-2.3,0.5l0,0c-0.7,0.3-1.4,0.8-2,1.3l0,0
			c-0.6,0.6-1,1.3-1.4,2.1c-0.4,0.8-0.5,1.8-0.5,2.7v0c0,1,0.2,1.9,0.5,2.7c0.3,0.8,0.8,1.5,1.4,2.1l0.2,0.2
			c0.5,0.5,1.1,0.8,1.7,1.1c0.7,0.3,1.5,0.5,2.3,0.5c0.6,0,1.2-0.1,1.7-0.3c0.5-0.2,1-0.4,1.4-0.7c0.3-0.2,0.5-0.4,0.7-0.6v0.6
			c0,0.4,0.3,0.7,0.7,0.7h1.1c0.4,0,0.7-0.3,0.7-0.7v-16.1C113.4,192.2,113.1,191.9,112.7,191.9z M111,203.1c0,0.6-0.1,1.2-0.3,1.7
			c-0.2,0.5-0.5,1-0.9,1.3c-0.4,0.4-0.8,0.6-1.3,0.8c-0.5,0.2-0.9,0.3-1.4,0.3c-0.5,0-1-0.1-1.4-0.3c-0.5-0.2-0.8-0.5-1.2-0.8
			c-0.3-0.3-0.6-0.8-0.8-1.3c-0.2-0.5-0.3-1.1-0.3-1.8v0c0-0.7,0.1-1.3,0.3-1.8c0.2-0.5,0.5-0.9,0.8-1.3c0.3-0.3,0.7-0.6,1.2-0.8
			c0.5-0.2,0.9-0.3,1.5-0.3c0.5,0,1,0.1,1.4,0.3c0.5,0.2,0.9,0.5,1.3,0.8c0.4,0.4,0.7,0.8,0.9,1.3C110.9,201.9,111,202.4,111,203.1
			L111,203.1z"/>
		<path class="st1" d="M106.2,165.5c0.4,0,0.7-0.3,0.7-0.7v-2.6c0-0.4-0.3-0.7-0.7-0.7H95.7c-0.4,0-0.7,0.3-0.7,0.7v25.5
			c0,0.4,0.3,0.7,0.7,0.7h10.5c0.4,0,0.7-0.3,0.7-0.7v-2.6c0-0.4-0.3-0.7-0.7-0.7h-7v-7.7h5.5c0.4,0,0.7-0.3,0.7-0.7v-2.5
			c0-0.4-0.3-0.7-0.7-0.7h-5.5v-7.3H106.2z"/>
		<path class="st1" d="M137.6,191.9h-1.1c-0.4,0-0.7,0.3-0.7,0.7v5.4c-0.2-0.2-0.5-0.4-0.7-0.6l0,0l-0.3-0.2
			c-0.3-0.2-0.7-0.3-1.1-0.5c-0.6-0.2-1.2-0.3-1.8-0.3c-0.8,0-1.5,0.2-2.3,0.5l0,0c-0.7,0.3-1.4,0.8-2,1.3l0,0
			c-0.6,0.6-1,1.3-1.4,2.1c-0.4,0.8-0.5,1.8-0.5,2.7v0c0,1,0.2,1.9,0.5,2.7c0.4,0.8,0.8,1.5,1.4,2.1l0.2,0.2
			c0.5,0.5,1.1,0.8,1.7,1.1c0.7,0.3,1.5,0.5,2.3,0.5c0.6,0,1.2-0.1,1.7-0.3c0.5-0.2,1-0.4,1.4-0.7c0.3-0.2,0.5-0.4,0.7-0.6v0.6
			c0,0.4,0.3,0.7,0.7,0.7h1.1c0.4,0,0.7-0.3,0.7-0.7v-16.1C138.3,192.2,137.9,191.9,137.6,191.9z M135.8,203.1
			c0,0.6-0.1,1.2-0.3,1.7c-0.2,0.5-0.5,1-0.9,1.3c-0.4,0.4-0.8,0.6-1.3,0.8c-0.5,0.2-0.9,0.3-1.4,0.3c-0.5,0-1-0.1-1.4-0.3
			c-0.5-0.2-0.9-0.5-1.2-0.8c-0.3-0.3-0.6-0.8-0.8-1.3c-0.2-0.5-0.3-1.1-0.3-1.8v0c0-0.7,0.1-1.3,0.3-1.8c0.2-0.5,0.5-0.9,0.8-1.3
			c0.3-0.3,0.7-0.6,1.2-0.8c0.5-0.2,0.9-0.3,1.5-0.3c0.5,0,1,0.1,1.4,0.3c0.5,0.2,0.9,0.5,1.3,0.8c0.4,0.4,0.7,0.8,0.9,1.3
			C135.7,201.9,135.8,202.4,135.8,203.1L135.8,203.1z"/>
		<path class="st1" d="M64.1,187.8c0,0.4,0.3,0.7,0.7,0.7h2.8c0.4,0,0.7-0.3,0.7-0.7v-22.3h4c0.4,0,0.7-0.3,0.7-0.7v-2.6
			c0-0.4-0.3-0.7-0.7-0.7H60.1c-0.4,0-0.7,0.3-0.7,0.7v2.6c0,0.4,0.3,0.7,0.7,0.7h4V187.8z"/>
		<path class="st1" d="M43.6,196.6c-0.8,0-1.6,0.1-2.3,0.3c-0.7,0.2-1.3,0.4-2,0.8c-0.3,0.2-0.5,0.6-0.3,0.9l0.4,1
			c0.1,0.2,0.2,0.3,0.4,0.4c0.2,0.1,0.4,0.1,0.6,0c0.5-0.2,1-0.4,1.5-0.6c0.5-0.1,1.1-0.2,1.7-0.2c1,0,1.8,0.3,2.3,0.7
			c0.4,0.3,0.7,0.9,0.7,1.6c-0.3-0.1-0.6-0.1-0.9-0.2c-0.6-0.1-1.3-0.1-2.1-0.1c-0.8,0-1.5,0.1-2.2,0.3c-0.7,0.2-1.3,0.5-1.8,0.8
			c-0.5,0.4-0.9,0.8-1.2,1.4c-0.3,0.6-0.5,1.2-0.5,1.9v0.1c0,0.7,0.2,1.3,0.5,1.9l0,0c0.3,0.5,0.7,1,1.2,1.3c0,0,0,0,0,0
			c0.5,0.3,1,0.6,1.6,0.7c0.6,0.2,1.2,0.2,1.8,0.2c0.6,0,1.1-0.1,1.6-0.2c0,0,0,0,0,0c0.5-0.1,0.9-0.3,1.4-0.6
			c0.2-0.1,0.4-0.2,0.6-0.4v0.2c0,0.4,0.3,0.7,0.7,0.7h1.1c0.4,0,0.7-0.3,0.7-0.7v-7c0-1.6-0.5-2.9-1.5-3.8
			C46.6,197,45.2,196.6,43.6,196.6z M46.6,204.5c0,0.4-0.1,0.8-0.2,1.1l0,0c-0.2,0.3-0.4,0.6-0.7,0.9c-0.3,0.2-0.7,0.4-1.1,0.6
			l-0.3,0.1c-0.3,0.1-0.7,0.1-1.1,0.1c-0.4,0-0.7,0-1-0.1c-0.3-0.1-0.6-0.2-0.8-0.4c-0.2-0.2-0.4-0.3-0.5-0.6
			c-0.1-0.2-0.2-0.4-0.2-0.7v0c0-0.6,0.2-1,0.7-1.3l0,0c0.5-0.4,1.2-0.6,2.3-0.6c0.8,0,1.5,0.1,2,0.2c0,0,0,0,0,0
			c0.4,0.1,0.7,0.1,1.1,0.2V204.5z"/>
		<path class="st1" d="M148.4,183.3l0.9,4.6c0.1,0.3,0.4,0.6,0.7,0.6h2.8c0.2,0,0.4-0.1,0.5-0.3c0.1-0.2,0.2-0.4,0.1-0.6l-4.9-25.6
			c-0.1-0.3-0.4-0.6-0.7-0.6h-4.1c-0.3,0-0.6,0.2-0.7,0.5l0,0.1l-4.9,25.6c0,0.2,0,0.4,0.1,0.6c0.1,0.2,0.3,0.3,0.5,0.3h2.6
			c0.3,0,0.6-0.2,0.7-0.6l0.9-4.6H148.4z M145.7,169.1l2,10.3h-4L145.7,169.1z"/>
		<path class="st1" d="M53.4,175.8c-0.6-0.6-1.5-1.4-2.5-2.3l0,0l-0.5-0.4c-1.1-0.9-1.8-1.6-2.4-2.3c-0.5-0.7-0.8-1.6-0.8-2.6
			c0-1.1,0.2-1.8,0.6-2.3c0.3-0.4,0.8-0.6,1.6-0.6c0.8,0,1.3,0.2,1.6,0.6c0.3,0.4,0.6,1.2,0.6,2.3v0.8c0,0.4,0.3,0.7,0.7,0.7h2.7
			c0.4,0,0.7-0.3,0.7-0.7v-0.7c0-2.1-0.5-3.9-1.6-5.1l0,0l-0.2-0.2c-1.1-1.2-2.7-1.7-4.6-1.7h0c-2,0-3.7,0.6-4.8,1.9
			c-1.1,1.3-1.6,3-1.6,5.2c0,1.3,0.2,2.4,0.7,3.4c0.5,1,1,1.8,1.7,2.5c0.6,0.6,1.5,1.4,2.5,2.2c0,0,0,0,0,0c1.3,1,2.2,1.9,2.8,2.7
			c0.5,0.7,0.8,1.5,0.8,2.6c0,1.1-0.2,1.8-0.6,2.3l0,0c-0.3,0.4-0.8,0.7-1.7,0.7c-0.7,0-1.2-0.2-1.5-0.5l-0.1-0.2
			c-0.4-0.5-0.6-1.2-0.6-2.3v-1.6c0-0.4-0.3-0.7-0.7-0.7h-2.7c-0.4,0-0.7,0.3-0.7,0.7v1.5c0,2.1,0.5,3.9,1.6,5.1
			c1.1,1.3,2.8,1.9,4.8,1.9c2,0,3.7-0.6,4.8-1.9c1.1-1.3,1.6-3,1.6-5.1c0-1.3-0.2-2.4-0.7-3.4C54.6,177.2,54.1,176.4,53.4,175.8z"/>
		<path class="st1" d="M133.1,188.4c0.4,0,0.7-0.3,0.7-0.7v-25.5c0-0.4-0.3-0.7-0.7-0.7h-2.8c-0.4,0-0.7,0.3-0.7,0.7v25.5
			c0,0.4,0.3,0.7,0.7,0.7H133.1z"/>
		<path class="st1" d="M80,198c-0.4-0.5-1-0.8-1.6-1.1c0,0,0,0,0,0c-0.6-0.3-1.3-0.4-2.1-0.4c-0.6,0-1.1,0.1-1.6,0.2
			c-0.5,0.2-0.9,0.3-1.3,0.6c-0.4,0.3-0.7,0.6-1,0.9l0,0c0,0,0,0.1-0.1,0.1c0,0,0-0.1-0.1-0.1c-0.3-0.4-0.6-0.7-0.9-0.9
			c-0.4-0.3-0.8-0.5-1.3-0.6c-0.5-0.2-1-0.2-1.5-0.2c-0.5,0-1.1,0.1-1.5,0.2c-0.4,0.1-0.9,0.3-1.2,0.6c-0.1,0.1-0.2,0.1-0.3,0.2
			v-0.1c0-0.4-0.3-0.7-0.7-0.7h-1.1c-0.4,0-0.7,0.3-0.7,0.7v11.3c0,0.4,0.3,0.7,0.7,0.7h1.1c0.4,0,0.7-0.3,0.7-0.7v-6.5
			c0-0.5,0.1-1,0.2-1.4c0.2-0.4,0.4-0.8,0.6-1.1c0.3-0.3,0.6-0.5,0.9-0.7c0.3-0.2,0.7-0.2,1.1-0.2c0.8,0,1.4,0.3,1.9,0.8
			c0.4,0.5,0.7,1.3,0.7,2.3v6.8c0,0.4,0.3,0.7,0.7,0.7h1.1c0.4,0,0.7-0.3,0.7-0.7v-6.6c0-0.5,0.1-1,0.2-1.4c0.2-0.4,0.4-0.7,0.6-1
			c0.3-0.3,0.6-0.5,0.9-0.6c0.3-0.1,0.7-0.2,1.1-0.2c0.9,0,1.5,0.3,1.9,0.8c0.4,0.5,0.7,1.3,0.7,2.4v6.7c0,0.4,0.3,0.7,0.7,0.7
			c0.1,0,0.1,0,0.2,0h0.9c0.4,0,0.7-0.3,0.7-0.7v-6.8c0-0.8-0.1-1.5-0.3-2.2C80.7,199,80.4,198.5,80,198z"/>
	</g>
</g>
</svg>
