<svg width="122" height="138" viewBox="0 0 122 138" fill="none" xmlns="http://www.w3.org/2000/svg">
<g clip-path="url(#clip0_14_5)">
<path d="M0.100011 16.9C0.100011 14.7 0.100011 12.6 0.100011 10.4C1.08555e-05 9.20001 1.08518e-05 8.00001 1.08518e-05 6.70001C1.08518e-05 5.50001 0.400011 5.20001 1.50001 5.60001C6.40001 7.80001 11.2 10.1 16.1 12.3C19.4 13.8 22.7 15.2 26 16.7C29.4 18.3 32.7 20 36.1 21.6C37.4 22.2 38.8 22.7 40.2 23.2C40.5 23.3 40.9 23.5 40.9 23.7C41 23.9 40.7 24.3 40.5 24.5C40.1 24.9 39.5 25.1 39.1 25.5C38.2 26.3 37.3 26.5 36.4 25.4C36.2 25.2 35.6 25 35.4 25.1C35.1 25.3 34.9 25.8 34.9 26.1C35 26.6 35.2 27.2 35.5 27.4C36.7 28.2 36.4 29 35.8 30C33.6 33.8 31.4 37.6 29.2 41.3C28.4 42.6 28.8 43.2 30.3 43.2C36.8 43.2 43.4 43.3 49.9 43.3C51.9 43.3 52.3 43 52.2 41.1C52.1 35.4 52 29.6 51.9 23.9C51.9 23.5 51.8 23 51.6 22.7C51 21.8 51.3 21.4 52.3 21.4C56.8 21.4 61.2 21.3 65.7 21.4C68 21.5 68.9 22.4 69.2 24.7C69.4 26 70 26.6 71.3 26.7C74.3 26.9 76.1 28.8 76.1 31.8C76.1 32.7 76 33.6 75.9 34.5C75.8 35.4 75.3 35.7 74.4 35.3C73.2 34.9 71.9 34.6 70.7 34.3C69.7 34.1 69.1 34.6 69.1 35.8C69.2 37.7 69.1 39.5 69.1 41.4C69.1 43 69.3 43.3 71 43.3C77.5 43.3 84 43.3 90.5 43.2C93.3 43.2 93.5 43 92 40.5C89 35.5 85.9 30.5 82.8 25.5C82.5 25 82 24.7 81.6 24.2C80.8 23.4 81 22.7 82 22.3C88.5 19.4 95 16.5 101.5 13.6C104.9 12.1 108.4 10.7 111.8 9.10001C113.7 8.20001 116 8.00001 117.6 6.30001C117.8 6.10001 118.3 6.30001 118.7 6.30001C118.5 6.70001 118.4 7.20001 118.1 7.80001C118.2 7.90001 118.5 8.20001 118.7 8.50001C119.3 9.40001 119.9 10.3 118.8 11.4C118.5 11.7 118.7 12.4 118.7 12.8C119.1 12.7 119.6 12.8 120 12.6C120.7 12.2 121.1 12.4 121.4 13C122.5 15.1 121.8 17.3 119.7 18.4C117.2 19.6 114.6 20.7 112 21.9C111.2 22.2 110.9 22.7 110.9 23.5C110.9 24.3 110.9 25.1 110.9 25.9C110.8 27 111.3 27.5 112.4 27.5C114.9 27.4 117.3 27.5 119.8 27.5C121.4 27.5 121.6 27.7 121.6 29.3C121.6 33.4 121.5 37.6 121.6 41.7C121.6 42.8 121.1 43.2 120.1 43.2C117.6 43.2 115 43.2 112.5 43.2C111.2 43.2 110.9 43.4 110.9 44.8C110.9 45.5 110.9 46.3 111 47C111.1 47.5 111.2 48.1 111.5 48.3C112.7 49.3 114 50.4 115.4 51.1C117.3 52 119.3 52.8 120.8 54.4C121.1 54.7 121.4 55.2 121.4 55.5C121.5 60.5 121.6 65.4 121.7 70.4C121.7 71.5 121.1 71.8 120.2 71.3C119.5 70.9 118.8 70.5 118.3 69.9C117.9 69.4 117.7 68.6 117.4 67.8C115.5 69.1 114.2 67 112.6 66.3C112.2 66.1 111.6 65.8 111.4 66C111.1 66.2 111 66.8 111 67.2C110.9 68.9 111.3 70.5 112.3 71.9C114.1 74.4 115.7 76.9 117.5 79.4C117.9 79.9 118.3 80.4 118.7 80.8C118.6 80.9 118.6 81 118.5 81.1C118 80.9 117.5 80.7 117.1 80.7C116.6 80.7 115.9 80.9 115.8 81.3C115.6 81.8 115.3 82.6 116.4 82.8C116.6 82.8 116.8 83.2 117 83.5C116.7 83.7 116.5 84.1 116.2 84.1C115.5 84.3 114.8 84.5 114.1 84.3C113.6 84.2 113.2 83.6 112.7 83.2C112.4 82.9 112.1 82.4 111.9 82C111.6 82.3 111.3 82.6 111 82.9C110.7 83.2 110.3 83.6 109.9 83.6C109.6 83.6 109.4 83 109.1 82.7C108.7 82.2 108.4 81.8 108 81.3C106.8 80 105.6 78.7 104.5 77.3C102.9 75.3 101.4 73.3 99.8 71.3C98.8 70.1 96.4 69.7 95.1 70.5C94.8 70.7 94.5 71.2 94.4 71.6C94.3 73 94.2 74.4 94.1 75.8C94 78.4 94 81 93.9 83.7C93.8 84.9 93.4 85.2 92.4 84.5C89.3 82.4 86.1 80.2 83.1 78C82.6 77.6 82.4 76.5 82.3 75.8C82.1 74.5 82.2 73.2 82.2 71.9C82.2 70.8 81.7 70.3 80.6 70.3C79.7 70.3 78.8 70.3 78 70.3C77.3 70.3 76.8 70.6 76.8 71.4C76.8 72.8 76.8 74.2 76.8 75.6C76.8 77.4 77.5 78.8 79 79.7C81.1 81 81.9 82.8 81.6 85.2C81.5 85.8 81.9 86.6 82.2 87.2C82.3 87.4 83 87.5 83.2 87.4C84 86.9 84.3 87.4 84.3 88C84.3 88.9 84.8 89 85.5 89.3C87 90 88.4 91 89.8 91.9C91.1 92.8 92.4 93.9 93.7 94.8C94.1 95.1 94.8 95.2 95.2 95.1C96.6 94.6 97.9 93.8 99.4 93.5C101.5 93 103 90.8 105.4 91.4C105.6 91.5 106.2 90.7 106.4 90.3C106.7 89.4 108 87.9 108.9 88.1C109.3 88.1 109.8 88.7 109.9 89.1C110 90.1 110 91.2 110 92.2C110 93.1 109.3 93.3 108.6 93.3C106.4 93 104.6 94.3 102.6 94.7C102.3 94.8 102 95 101.8 95.2C100.8 95.9 99.9 96.6 98.8 97.2C97.7 97.8 97.6 98.2 98.5 99C100.1 100.3 101.7 101.5 103.2 102.9C104.6 104.2 106 105.6 107.3 106.9C107.9 107.5 107.9 108.1 107.2 108.6C106.4 109.2 105.6 109.8 104.7 110.2C103.9 110.6 103.4 110.3 103.3 109.4C102.8 106.5 100.5 105.2 98.3 103.9C97.6 103.5 97.4 104.2 97.3 104.8C97.3 106.4 97.2 108 97.2 109.5C97.2 111 97.2 112.4 97.1 113.9C97 115.3 96.2 115.7 95 115.1C94.5 114.8 94.1 114.5 93.6 114.2C92.3 113.3 92.3 113.2 92.9 111.7C93.2 111.1 93.3 110.4 93.3 109.8C93.4 107 93.5 104.2 93.4 101.4C93.4 100.1 92.7 99.7 91.6 100.5C89.9 101.7 87.9 102.6 86.8 104.6C86.7 104.8 85.8 104.9 85.5 104.7C84.5 104.1 83.5 103.3 82.6 102.5C81.9 101.9 82.3 101.4 83 101.1C84.8 100.2 86.6 99.3 88.3 98.4C88.7 98.2 89.1 98 89.4 97.7C89.9 97.2 90.1 96.7 89.3 96.1C87.3 94.6 85.3 93.1 83.4 91.5C82.2 90.5 81.8 90.6 81.4 92.1C81.3 92.5 81 92.9 80.8 93.2C80.4 93 80 92.8 79.7 92.6C79.4 92.4 79.1 92.1 78.9 91.9C77.2 90.5 76.9 90.6 75.1 91.8C71.1 94.6 67.1 97.3 63 100C61 101.3 59.9 101.2 58.5 99.6C58.2 99.3 58.3 98.6 58.2 98.1C58.6 98.1 59.1 98.2 59.6 98.2C59.8 97.6 60.1 96.9 59.3 96.3C58.7 95.9 57.5 96.5 57.2 97.4C56.9 98.3 56.4 98.3 55.7 97.8C52.7 95.8 49.7 93.8 46.6 91.9C44.8 90.8 44 91 42.5 92.5C42.1 92.9 41.5 93 41 93.2C40.8 92.8 40.5 92.4 40.4 91.9C40.1 90.9 39.6 90.7 38.8 91.4C36.8 93 34.8 94.7 32.8 96.3C32 97.3 32.1 98 33 98.5C34.8 99.6 36.6 100.5 38.4 101.6C39.6 102.3 39.7 102.7 38.6 103.6C37.9 104.2 37.1 104.7 36.4 105.3C35.7 105.9 35.3 105.6 34.7 105.1C33.2 103.8 31.7 102.5 30.1 101.3C29.1 100.6 28.4 101 28.4 102.2C28.3 104.7 28.2 107.2 28.4 109.7C28.5 110.7 29 111.8 29.5 112.7C30 113.6 29.8 114.1 29.1 114.6C28.3 115.1 27.4 115.5 26.5 115.9C25.4 116.4 25 116.2 25 115C24.9 113 24.9 111 24.9 109C24.9 107.8 24.9 106.7 24.8 105.5C24.7 104.3 24.1 104 23.3 104.8C21.7 106.4 20.2 108 18.8 109.7C18.1 110.6 17.6 110.8 16.6 110.4C16 110.1 15.3 109.8 14.7 109.5C13.4 108.8 13.4 108.3 14.5 107.3C17.4 105 20.2 102.6 23.1 100.3C23.4 100.1 23.6 99.9 23.8 99.6C24.6 98.7 24.5 98.3 23.4 97.8C21 96.6 18.6 95.5 16.2 94.3C15.4 93.9 14.7 93.5 15.1 92.4C15.2 92.2 14.8 91.9 14.7 91.6C14.5 91.8 14.2 91.9 14 92.1C13.5 92.8 13.1 93.5 12.5 94.5C12.3 93.9 12 93.5 12.1 93.2C12.3 92.1 12.5 91 12.7 89.9C12.9 89.2 13.4 89 14 89.3C16.5 90.5 18.9 91.7 21.3 93.1C21.9 93.4 22.3 94.1 22.7 94.8C23 95.4 23.3 95.7 23.8 95.2C24.5 94.5 25.1 94.7 25.8 95.2C26.8 96 27.7 96.1 28.7 95.2C32.1 92.4 35.7 89.7 39.1 86.8C39.7 86.3 40.2 85.4 40.3 84.7C40.5 82.8 41.6 81.4 43.2 80.6C44.9 79.7 45.5 78.5 45.3 76.6C45.2 75.1 45.2 73.6 45.3 72.1C45.3 71.1 44.9 70.7 44 70.7C40.3 70.8 40.2 70.3 40.5 74C40.7 77.2 38.6 78.9 36.4 80.5C34.4 81.9 32.5 83.3 30.5 84.7C30.1 84.9 29.6 85.2 29.3 85.1C29 85 28.9 84.4 28.8 84C28.6 80.1 28.5 76.2 28.3 72.3C28.2 70.8 28 70.7 26.5 70.7C23.9 70.6 22.4 72.1 20.9 73.9C19.7 75.4 18.4 76.9 17.2 78.4C17.1 78.6 16.8 78.6 16.8 78.6C16.1 77.7 15.5 76.9 14.7 76.3C14.2 75.8 13.4 75.6 12.7 75.4C12.4 75.3 11.8 75.5 11.6 75.7C11.4 76 11.4 76.5 11.4 76.8C11.4 76.9 12 77 12.3 77C14.3 76.8 16.1 79.3 15.1 81.2C14.3 82.6 13.1 83.7 12 84.9C11.8 85.1 11.1 84.6 10.4 84.4C8.80001 85.9 6.60001 85.1 4.60001 85.2C3.80001 85 3.00001 85 2.30001 84.9C1.90001 84.9 1.40001 84.7 1.20001 84.4C1.10001 84.2 1.30001 83.6 1.50001 83.3C4.00001 79.9 6.50001 76.6 8.90001 73.2C10 71.6 11.1 70 10.8 67.9C10.7 67.4 10.5 66.7 10.2 66.5C9.80001 66.4 9.20001 66.7 8.70001 66.9C6.30001 68.4 3.90001 70 1.50001 71.6C0.400011 72.3 0.100011 72.1 1.08518e-05 70.8C1.08518e-05 65.8 1.08518e-05 60.7 1.08518e-05 55.7C1.08518e-05 55.2 0.500011 54.5 1.00001 54.2C3.90001 52.5 6.80001 51 9.70001 49.3C10.2 49 10.7 48.2 10.8 47.6C11 46.8 10.8 45.9 10.9 45.1C11 44 10.4 43.6 9.40001 43.6C6.90001 43.6 4.40001 43.6 1.90001 43.6C1.0848e-05 43.6 1.08518e-05 43.6 1.08518e-05 41.8C1.08518e-05 38 -0.0999891 34.1 1.08518e-05 30.3C1.08518e-05 28.2 0.200011 28.1 2.40001 28C4.70001 28 7.00001 28 9.30001 28C10.5 28 11 27.5 10.9 26.3C10.7 22.5 11.6 23.3 7.70001 21.5C5.60001 20.5 3.40001 19.6 2.10001 17.3C2.00001 17 1.20001 16.9 0.600011 16.8C0.400011 16.8 0.200011 16.9 0.100011 16.9ZM13.7 81.6C13.6 81.4 13.5 81.1 13.3 80.9C12.9 80.9 12.5 80.7 12.3 80.9C11.4 81.8 10.6 81.8 9.90001 80.7C9.80001 80.6 9.20001 80.7 8.80001 80.8C8.90001 81.1 8.90001 81.6 9.20001 81.8C9.50001 82.1 9.90001 82.4 10.3 82.6C10.7 82.8 11.3 83.2 11.7 83.1C12.5 82.7 13.1 82.1 13.7 81.6ZM92.4 96.2C91.5 95.5 90.9 95.1 90.3 94.7C90.2 94.6 89.8 95.1 89.6 95.3C90.1 95.8 90.6 96.3 91.2 96.7C91.2 96.8 91.7 96.5 92.4 96.2ZM16.7 28.9C17.4 28.5 18 28.2 18.6 27.9C18.4 27.7 18.1 27.4 18 27.5C17.4 27.7 16.8 28.1 16.2 28.4C16.4 28.5 16.5 28.7 16.7 28.9Z" fill="white"/>
<path d="M35.9 125C39 124.8 40.6 122.3 42.8 120.7C44.6 119.4 45.9 117.3 47.5 115.6C49.2 113.9 51.1 112.4 52.8 110.7C53.5 110.1 54.1 109.4 54.8 108.7C55.4 108.1 55.9 107.5 56.5 106.9C57.5 105.8 58.6 104.8 59.6 103.7C60.6 102.6 61.2 102.5 62.3 103.6C62.8 104.1 63.3 104.6 63.8 105.1C64.5 105.8 65.4 106.3 64 107.3C63.7 107.5 63.9 108.8 64.3 109.4C64.7 110.1 65.3 109.7 65.8 109.3C66.8 108.5 67.6 108.9 68.3 109.6C72.1 113.3 75.9 117.1 79.8 120.7C81.6 122.4 83.6 124.1 86.1 124.8C86.3 124.9 86.5 125.2 86.7 125.3C86.5 125.5 86.3 125.7 86.1 125.8C85.8 125.9 85.4 125.9 85.1 125.9C81.3 126 77.5 126.2 73.6 126.3C72.9 126.3 72 126 71.4 125.6C70.3 124.8 69.4 123.8 68.4 122.9C68.1 122.7 67.7 122.5 67.4 122.3C67.3 122.6 67 123 67 123.3C66.9 127 65.2 130.1 63.6 133.2C63.3 133.8 62.8 134.2 62.4 134.8C62.1 135.3 61.9 135.8 61.7 136.3C61.6 136.7 61.5 137 61.4 137.4C61 137.2 60.4 137 60.2 136.7C59.1 134.7 58 132.6 57 130.5C55.9 128.2 54.8 125.8 55 123.1C55 122.8 54.8 122.4 54.6 122.3C54.4 122.2 53.9 122.4 53.8 122.7C51.8 125.5 49.1 126.4 45.8 125.9C43.8 125.6 41.8 125.5 39.8 125.4C39.5 125.4 39.3 125.6 39 125.6C38.1 125.6 37.1 125.6 36.2 125.6C36 125.4 36 125.2 35.9 125Z" fill="white"/>
<path d="M60.6 11.5C60.4 11.1 60.3 11 60.3 11C60.7 9.7 60.6 8.8 58.8 8.7C58.2 8.7 57.6 7.7 57.1 7C56.8 6.6 56.5 6.1 56.5 5.7C56.4 5.2 56.5 4.6 56.7 4.2C57.7 3 58.7 1.9 59.8 0.8C60 0.6 60.2 0.3 60.5 0.1C60.7 0 61 0 61.3 0C61.3 0.3 61.4 0.6 61.4 0.8C60.8 2.5 60.8 2.4 62.6 2.5C63 2.5 63.4 2.8 63.7 2.9C64.5 3.3 65.3 3.8 66.1 4.1C66.8 4.3 66.8 4.9 66.4 5.1C65 5.7 64.6 7 63.8 8C63.7 8.1 63.6 8.1 63.4 8.2C63.3 7.9 63.2 7.5 63.1 7.3C62.9 7.1 62.5 6.9 62.2 6.8C62.1 7.2 61.9 7.6 62.1 7.9C62.3 8.3 62.7 8.5 63.2 8.9C62.2 9.8 61.5 10.6 60.6 11.5Z" fill="white"/>
<path d="M67.6001 11.7001C67.0001 11.7001 66.4001 11.7001 65.9001 11.6001C65.6001 11.5001 65.2001 11.3001 65.2001 11.1001C65.1001 10.9001 65.3001 10.4001 65.5001 10.3001C67.3001 9.10006 69.2001 8.00006 71.1001 6.80006C71.3001 6.70006 71.9001 6.70006 72.0001 6.90006C72.2001 7.10006 72.3001 7.60006 72.1001 7.90006C71.6001 8.90006 71.2001 10.1001 70.4001 10.9001C69.8001 11.5001 68.6001 11.7001 67.7001 12.0001C67.7001 11.9001 67.6001 11.8001 67.6001 11.7001Z" fill="white"/>
<path d="M57.5 11.3999C55.7 11.4999 54 11.6999 52.2 11.7999C51.8 11.7999 51.2 11.2999 51 10.8999C50.5 9.89994 50 8.89994 49.6 7.79994C49.5 7.49994 49.6 7.09994 49.7 6.89994C49.9 6.79994 50.3 6.89994 50.6 6.99994C51.6 7.39994 52.6 7.89994 53.6 8.39994C54 8.59994 54.5 8.79994 54.6 9.09994C55 10.4999 55.9 10.7999 57.1 10.7999C57.2 10.7999 57.4 10.8999 57.5 10.9999C57.5 11.1999 57.5 11.2999 57.5 11.3999Z" fill="white"/>
<path d="M69.3 14.2001C63.5 14.6001 57.6 14.5001 51.5 14.4001C52.7 13.3001 68.3 13.2001 69.3 14.2001Z" fill="white"/>
<path d="M13.7 81.6C13 82.1 12.4 82.7 11.7 83C11.4 83.1 10.8 82.8 10.3 82.5C9.89999 82.3 9.49999 82.1 9.19999 81.7C8.99999 81.5 8.89999 81 8.79999 80.7C9.19999 80.7 9.79999 80.5 9.89999 80.6C10.7 81.7 11.4 81.7 12.3 80.8C12.5 80.6 13 80.8 13.3 80.8C13.5 81.1 13.6 81.3 13.7 81.6Z" fill="white"/>
<path d="M92.4 96.2C91.7 96.5 91.3 96.8 91.1 96.7C90.5 96.3 90 95.8 89.5 95.3C89.7 95.1 90.1 94.7 90.2 94.7C90.9 95.1 91.4 95.6 92.4 96.2Z" fill="white"/>
<path d="M16.7 28.9C16.5 28.7 16.4 28.5 16.2 28.4C16.8 28.1 17.4 27.8 18 27.5C18.1 27.5 18.4 27.8 18.6 27.9C18 28.2 17.4 28.6 16.7 28.9Z" fill="white"/>
</g>
<defs>
<clipPath id="clip0_14_5">
<rect width="121.9" height="137.3" fill="white"/>
</clipPath>
</defs>
</svg>
